<svg width="128" height="128" viewBox="0 0 128 128" xmlns="http://www.w3.org/2000/svg" fill="none">
  <!-- Background -->
  <rect width="128" height="128" fill="#F5F7FA"/>
  
  <!-- Layar atas -->
  <rect x="44" y="18" width="40" height="20" rx="4" fill="#2196F3"/>
  <rect x="50" y="24" width="28" height="8" rx="2" fill="#E3F2FD"/>
  
  <!-- Badan bawah trapezium -->
  <path d="M32 44H96L108 88H20L32 44Z" fill="#2196F3"/>
  
  <!-- Tombol-tombol (3x3 grid, elips putih) -->
  <g fill="#ffffff">
    <ellipse cx="48" cy="56" rx="4" ry="3"/>
    <ellipse cx="64" cy="56" rx="4" ry="3"/>
    <ellipse cx="80" cy="56" rx="4" ry="3"/>
    
    <ellipse cx="48" cy="66" rx="4" ry="3"/>
    <ellipse cx="64" cy="66" rx="4" ry="3"/>
    <ellipse cx="80" cy="66" rx="4" ry="3"/>
    
    <ellipse cx="48" cy="76" rx="4" ry="3"/>
    <ellipse cx="64" cy="76" rx="4" ry="3"/>
    <ellipse cx="80" cy="76" rx="4" ry="3"/>
  </g>
  
  <!-- Garis alas bawah -->
  <rect x="20" y="88" width="88" height="8" rx="2" fill="#2196F3"/>
</svg>
